<svg width="25" height="25" viewBox="0 0 25 25" fill="none" xmlns="http://www.w3.org/2000/svg">
<path d="M2.98418 1.65192H21.212C22.3376 1.65192 23.25 2.56435 23.25 3.68989V15.538C23.25 16.6635 22.3376 17.576 21.212 17.576H19.1286C18.0577 17.576 17.0306 18.0014 16.2733 18.7587L13.5392 21.4928C12.7433 22.2887 11.4529 22.2887 10.657 21.4928L7.92286 18.7587C7.16559 18.0014 6.13852 17.576 5.06758 17.576H3.28798C2.16243 17.576 1.25 16.6635 1.25 15.538V3.38609C1.25 2.42833 2.02642 1.65192 2.98418 1.65192Z" stroke="currentColor" stroke-width="2"/>
<path d="M12.4317 6.93608L12.9017 8.83165C13.0662 9.49498 13.5841 10.0129 14.2475 10.1774L16.1431 10.6474C16.491 10.7337 16.491 11.2283 16.1431 11.3146L14.2475 11.7846C13.5841 11.9491 13.0662 12.467 12.9017 13.1304L12.4317 15.0259C12.3454 15.3739 11.8508 15.3739 11.7646 15.0259L11.2945 13.1304C11.13 12.467 10.6121 11.9491 9.94877 11.7846L8.0532 11.3146C7.70526 11.2283 7.70525 10.7337 8.0532 10.6474L9.94877 10.1774C10.6121 10.0129 11.13 9.49498 11.2945 8.83165L11.7646 6.93607C11.8508 6.58814 12.3454 6.58813 12.4317 6.93608Z" stroke="currentColor" stroke-width="1.5"/>
</svg>
