<svg width="24" height="24" viewBox="0 0 24 24" fill="none" xmlns="http://www.w3.org/2000/svg">
<path fill-rule="evenodd" clip-rule="evenodd" d="M14.2383 2.32183C14.6452 2.02926 15.2172 1.89287 15.7792 2.09855C16.974 2.53649 18.0838 3.17845 19.0591 3.99586C19.5177 4.38082 19.686 4.94286 19.6354 5.44001C19.5529 6.26822 19.6981 7.06784 20.0974 7.75637C20.4493 8.36901 20.9795 8.85296 21.6262 9.19392L21.8737 9.31491C22.329 9.52059 22.7338 9.94845 22.8361 10.5391C23.0546 11.7908 23.0546 13.071 22.8361 14.3227C22.7448 14.855 22.4071 15.2543 22.0079 15.4787L21.8737 15.548C21.1148 15.8889 20.4944 16.4169 20.0963 17.1054C19.6981 17.795 19.5529 18.5936 19.6354 19.4218C19.6849 19.9189 19.5177 20.4821 19.0591 20.8659C18.0838 21.6833 16.974 22.3253 15.7792 22.7632C15.5238 22.8546 15.2499 22.882 14.9815 22.8431C14.7131 22.8042 14.4583 22.7001 14.2394 22.54C13.5618 22.0549 12.7952 21.7799 12 21.7799C11.2048 21.7799 10.4382 22.0538 9.76172 22.54C9.54267 22.7003 9.28767 22.8044 9.01904 22.8434C8.7504 22.8823 8.47632 22.8548 8.22078 22.7632C7.02597 22.3253 5.91621 21.6833 4.94091 20.8659C4.7343 20.6905 4.57376 20.4672 4.4733 20.2155C4.37284 19.9637 4.33551 19.6912 4.36457 19.4218C4.44707 18.5936 4.30078 17.7939 3.90262 17.1054C3.54066 16.4901 3.01015 15.9913 2.37378 15.6679L2.1263 15.5469C1.87805 15.437 1.66052 15.268 1.49274 15.0546C1.32496 14.8412 1.21205 14.5899 1.1639 14.3227C0.945346 13.071 0.945346 11.7908 1.1639 10.5391C1.25519 10.0067 1.59286 9.60748 1.99212 9.3831L2.1263 9.31491C2.88523 8.97285 3.50556 8.446 3.90372 7.75637C4.30078 7.06784 4.44707 6.26822 4.36457 5.44001C4.33551 5.17054 4.37284 4.89805 4.4733 4.64632C4.57376 4.39459 4.7343 4.17127 4.94091 3.99586C5.91621 3.17845 7.02597 2.53649 8.22078 2.09855C8.47617 2.0072 8.75004 1.97979 9.01847 2.01871C9.28689 2.05763 9.5417 2.1617 9.76062 2.32183C10.4371 2.80798 11.2037 3.08185 12 3.08185C12.7963 3.08185 13.5618 2.80798 14.2383 2.32183ZM15.2909 4.26753C14.3384 4.89446 13.2154 5.28162 12 5.28162C10.7846 5.28162 9.66163 4.89336 8.70913 4.26753C7.94349 4.57673 7.22518 4.99216 6.57535 5.5016C6.64134 6.63778 6.41586 7.80367 5.80873 8.85626C5.20049 9.90775 4.30408 10.6854 3.28668 11.1968C3.17093 12.0147 3.17093 12.8449 3.28668 13.6628C4.30408 14.1742 5.20049 14.9518 5.80873 16.0055C6.41586 17.0559 6.64134 18.2218 6.57535 19.358C7.22512 19.8678 7.94343 20.2836 8.70913 20.5932C9.66163 19.9662 10.7846 19.5791 12 19.5791C13.2154 19.5791 14.3384 19.9673 15.2909 20.5932C16.0565 20.284 16.7748 19.8685 17.4246 19.3591C17.3586 18.2218 17.5841 17.0559 18.1913 16.0044C18.7984 14.9518 19.6959 14.1742 20.7133 13.6617C20.8288 12.8445 20.8288 12.0151 20.7133 11.1979C19.6959 10.6854 18.7995 9.90775 18.1913 8.85516C17.5841 7.80367 17.3586 6.63779 17.4246 5.5005C16.7748 4.99106 16.0565 4.57673 15.2909 4.26753ZM12 8.03134C13.1668 8.03134 14.2859 8.49487 15.1109 9.31994C15.936 10.145 16.3995 11.2641 16.3995 12.4309C16.3995 13.5977 15.936 14.7168 15.1109 15.5418C14.2859 16.3669 13.1668 16.8304 12 16.8304C10.8332 16.8304 9.71412 16.3669 8.88904 15.5418C8.06397 14.7168 7.60044 13.5977 7.60044 12.4309C7.60044 11.2641 8.06397 10.145 8.88904 9.31994C9.71412 8.49487 10.8332 8.03134 12 8.03134ZM12 10.2311C11.4166 10.2311 10.8571 10.4629 10.4445 10.8754C10.032 11.288 9.80022 11.8475 9.80022 12.4309C9.80022 13.0143 10.032 13.5738 10.4445 13.9864C10.8571 14.3989 11.4166 14.6307 12 14.6307C12.5834 14.6307 13.1429 14.3989 13.5555 13.9864C13.968 13.5738 14.1998 13.0143 14.1998 12.4309C14.1998 11.8475 13.968 11.288 13.5555 10.8754C13.1429 10.4629 12.5834 10.2311 12 10.2311Z" fill="currentColor"/>
</svg>
