<svg width="67" height="67" viewBox="0 0 67 67" fill="none" xmlns="http://www.w3.org/2000/svg">
<path fill-rule="evenodd" clip-rule="evenodd" d="M34.0008 66.9963C52.2714 66.7286 67 51.8343 67 33.5C67 14.9985 52.0015 0 33.5 0C14.9985 0 0 14.9985 0 33.5C0 43.2595 4.1734 52.0443 10.8329 58.1671L7.12132 61.8787C5.23143 63.7686 6.56993 67 9.24264 67H33.5H34L34.0008 66.9963ZM33.5882 58H33.5H11L15.1765 53.5C15.6922 52.5606 15.714 51.428 15.2347 50.4695L14.5 49L14.3821 48.8232C11.0146 44.6272 9 39.2989 9 33.5C9 19.969 19.969 9 33.5 9C47.031 9 58 19.969 58 33.5C58 47.0015 47.0786 57.9523 33.5883 57.9998L33.5882 58Z" fill="#118B50"/>
<g clip-path="url(#clip0_65_31)">
<path d="M21.25 23.1665V30.7498C21.25 31.9415 22.225 32.9165 23.4167 32.9165H27.75C28.3246 32.9165 28.8757 32.6882 29.2821 32.2819C29.6884 31.8756 29.9167 31.3245 29.9167 30.7498V23.1665M25.5833 23.1665V44.8332M42.75 37.2498V23.1665C41.3134 23.1665 39.9357 23.7372 38.9198 24.753C37.904 25.7688 37.3333 27.1466 37.3333 28.5832V35.0832C37.3333 36.2748 38.3083 37.2498 39.5 37.2498H42.75ZM42.75 37.2498V44.8332" stroke="#118B50" stroke-width="3" stroke-linecap="round" stroke-linejoin="round"/>
<rect x="38" y="24" width="4" height="13" fill="#118B50"/>
</g>
<defs>
<clipPath id="clip0_65_31">
<rect width="26" height="26" fill="white" transform="translate(18 21)"/>
</clipPath>
</defs>
</svg>
