<svg width="24" height="24" viewBox="0 0 24 24" fill="none" xmlns="http://www.w3.org/2000/svg">
<path d="M4.4375 3.0625C4.07283 3.0625 3.72309 3.20737 3.46523 3.46523C3.20737 3.72309 3.0625 4.07283 3.0625 4.4375V7.53125C3.0625 7.80475 2.95385 8.06706 2.76045 8.26045C2.56706 8.45385 2.30475 8.5625 2.03125 8.5625C1.75775 8.5625 1.49544 8.45385 1.30205 8.26045C1.10865 8.06706 1 7.80475 1 7.53125V4.4375C1 3.52582 1.36216 2.65148 2.00682 2.00682C2.65148 1.36216 3.52582 1 4.4375 1H7.53125C7.80475 1 8.06706 1.10865 8.26045 1.30205C8.45385 1.49544 8.5625 1.75775 8.5625 2.03125C8.5625 2.30475 8.45385 2.56706 8.26045 2.76045C8.06706 2.95385 7.80475 3.0625 7.53125 3.0625H4.4375ZM4.4375 20.9375C4.07283 20.9375 3.72309 20.7926 3.46523 20.5348C3.20737 20.2769 3.0625 19.9272 3.0625 19.5625V16.4688C3.0625 16.1952 2.95385 15.9329 2.76045 15.7395C2.56706 15.5461 2.30475 15.4375 2.03125 15.4375C1.75775 15.4375 1.49544 15.5461 1.30205 15.7395C1.10865 15.9329 1 16.1952 1 16.4688V19.5625C1 20.4742 1.36216 21.3485 2.00682 21.9932C2.65148 22.6378 3.52582 23 4.4375 23H7.53125C7.80475 23 8.06706 22.8914 8.26045 22.698C8.45385 22.5046 8.5625 22.2423 8.5625 21.9688C8.5625 21.6952 8.45385 21.4329 8.26045 21.2395C8.06706 21.0461 7.80475 20.9375 7.53125 20.9375H4.4375ZM20.9375 4.4375C20.9375 4.07283 20.7926 3.72309 20.5348 3.46523C20.2769 3.20737 19.9272 3.0625 19.5625 3.0625H16.4688C16.1952 3.0625 15.9329 2.95385 15.7395 2.76045C15.5461 2.56706 15.4375 2.30475 15.4375 2.03125C15.4375 1.75775 15.5461 1.49544 15.7395 1.30205C15.9329 1.10865 16.1952 1 16.4688 1H19.5625C20.4742 1 21.3485 1.36216 21.9932 2.00682C22.6378 2.65148 23 3.52582 23 4.4375V7.53125C23 7.80475 22.8914 8.06706 22.698 8.26045C22.5046 8.45385 22.2423 8.5625 21.9688 8.5625C21.6952 8.5625 21.4329 8.45385 21.2395 8.26045C21.0461 8.06706 20.9375 7.80475 20.9375 7.53125V4.4375ZM19.5625 20.9375C19.9272 20.9375 20.2769 20.7926 20.5348 20.5348C20.7926 20.2769 20.9375 19.9272 20.9375 19.5625V16.4688C20.9375 16.1952 21.0461 15.9329 21.2395 15.7395C21.4329 15.5461 21.6952 15.4375 21.9688 15.4375C22.2423 15.4375 22.5046 15.5461 22.698 15.7395C22.8914 15.9329 23 16.1952 23 16.4688V19.5625C23 20.4742 22.6378 21.3485 21.9932 21.9932C21.3485 22.6378 20.4742 23 19.5625 23H16.4688C16.1952 23 15.9329 22.8914 15.7395 22.698C15.5461 22.5046 15.4375 22.2423 15.4375 21.9688C15.4375 21.6952 15.5461 21.4329 15.7395 21.2395C15.9329 21.0461 16.1952 20.9375 16.4688 20.9375H19.5625ZM6.5 12C6.5 11.7265 6.60865 11.4642 6.80205 11.2708C6.99544 11.0774 7.25775 10.9688 7.53125 10.9688H16.4688C16.7423 10.9688 17.0046 11.0774 17.198 11.2708C17.3914 11.4642 17.5 11.7265 17.5 12C17.5 12.2735 17.3914 12.5358 17.198 12.7292C17.0046 12.9226 16.7423 13.0312 16.4688 13.0312H7.53125C7.25775 13.0312 6.99544 12.9226 6.80205 12.7292C6.60865 12.5358 6.5 12.2735 6.5 12Z" fill="black"/>
</svg>
